# xmcd
#
# Track frame offsets:
#	150
#	23337
#	49900
#	59475
#	71272
#	82247
#	96707
#	113502
#	127392
#	143962
#	162737
#	173122
#	181035
#	193377
#
# Disc length: 3070 seconds
# Revision: 0
# Processed by: cddbd v1.5.2PL0 Copyright (c) Steve Scherf et al.
# Submitted via: dBpowerAMP V12.0
#
DISCID=d20bfc0e
DTITLE=Richard Wagner - Siegfried [Barenboim], Disc 3
DYEAR=1992
DGENRE=Opera
TTITLE0=Akt 2 - Haha! Da htte mein Lied mir was Liebes erblasen!
TTITLE1=Akt 2 - Da liegt, neidischer Kerl
TTITLE2=Akt 2 - Zur Kunde taucht kein Toter
TTITLE3=Akt 2 - Wohin schleichst du eilig und schlau
TTITLE4=Akt 2 - Was ihr mir ntzt, wei ich nicht
TTITLE5=Akt 2 - Willkommen Siegfried
TTITLE6=Akt 2 - Sieh, du bist mde von harter Mh
TTITLE7=Akt 2 - Neides Zoll zahlt Notung
TTITLE8=Akt 2 - Hei ward mir von der harten Last!
TTITLE9=Akt 2 - Nun sing! Ich lausche dem Gesang
TTITLE10=Akt 3 - Vorspiel
TTITLE11=Akt 3 - Wache, Wala! Wala! Erwach!
TTITLE12=Akt 3 - Stark ruft das Lied
TTITLE13=Akt 3 - Mein Schlaf ist Trumen
EXTD=
EXTT0=
EXTT1=
EXTT2=
EXTT3=
EXTT4=
EXTT5=
EXTT6=
EXTT7=
EXTT8=
EXTT9=
EXTT10=
EXTT11=
EXTT12=
EXTT13=
PLAYORDER=
